# xmcd
#
# Track frame offsets:
#	150
#	14705
#	30212
#	44750
#	59570
#	73222
#	87400
#	102055
#	117230
#	132082
#	147025
#	161975
#	175252
#	188557
#	204897
#	219090
#	234405
#	248900
#
# Disc length: 3570 seconds
#
# Revision: 1
# Processed by: cddbd v1.5.1PL2 Copyright (c) Steve Scherf et al.
# Submitted via: audiograbber 1.82.01
#
DISCID=fb0df012
DTITLE=Διάφοροι - ΠΑΝΟΡΑΜΑ ΡΕΜΠΕΤΙΚΟΥ ΤΡΑΓΟΥΔΙΟΥ-Αμανέδες και Ταξίμια (1928-194
DTITLE=0) CD3
DYEAR=1900
DGENRE=Ρεμπέτικα
TTITLE0=Ταξίμ Ράστ-Σαββαΐδης-Σαλονικιός - Τομπούλης
TTITLE1=Αραπί Γκαζέλι Ουσάκ - Εσκενάζυ Ρόζα
TTITLE2=Νεβά Μανές - Μπρουσαλιά Μαρίκα
TTITLE3=Γκαζέλι Νεβά Μανές - Αμπατζή Ρίτα
TTITLE4=Μουσταάρ Μανές - Παπασιδέρης Γιώργος
TTITLE5=Ταξίμ Ζεϊμπέκικο - Βαμβακάρης Μ.
TTITLE6=Μανές Χουσεϊνί - Νταλγκάς Αντ.
TTITLE7=Γκαζέλι Σεχνάζ - Εσκενάζυ Ρόζα
TTITLE8=Μανε΄ς Ραστ Νεβά - Παγιουμτζής
TTITLE9=Μανές Καρίπ Χιτζάζ - Αμπατζή
TTITLE10=Αράπ - Βαμβακάρης Μ.
TTITLE11=Νεβά Ταξίμ - Μελκόν
TTITLE12=Χετζάζ Μανές - Σωφρονίου
TTITLE13=Μανές Κιουρντού Χιτζκιάρ - Καρίπης Κώστας
TTITLE14=Σεγκιάχ Ταξίμ - Κλαρίνο Α. Χατζόπουλος
TTITLE15=Μεστενικάρ Μανές - Νταλγκάς Αντ.
TTITLE16=Ουσάκ Μανές - Ρούκουνας Κ.
TTITLE17=Φεραχνάκ Μανές - Πούλος Αχιλλέας
EXTD=
EXTT0=
EXTT1=
EXTT2=
EXTT3=
EXTT4=
EXTT5=
EXTT6=
EXTT7=
EXTT8=
EXTT9=
EXTT10=
EXTT11=
EXTT12=
EXTT13=
EXTT14=
EXTT15=
EXTT16=
EXTT17=
PLAYORDER=
